<svg xmlns:dc="http://purl.org/dc/elements/1.1/" xmlns:cc="http://creativecommons.org/ns#" xmlns:rdf="http://www.w3.org/1999/02/22-rdf-syntax-ns#" xmlns:svg="http://www.w3.org/2000/svg" xmlns="http://www.w3.org/2000/svg" xmlns:sodipodi="http://sodipodi.sourceforge.net/DTD/sodipodi-0.dtd" xmlns:inkscape="http://www.inkscape.org/namespaces/inkscape" version="1.1" x="0px" y="0px" viewBox="0 0 100 125"><g transform="translate(0,-952.36218)"><path style="font-size:medium;font-style:normal;font-variant:normal;font-weight:normal;font-stretch:normal;text-indent:0;text-align:start;text-decoration:none;line-height:normal;letter-spacing:normal;word-spacing:normal;text-transform:none;direction:ltr;block-progression:tb;writing-mode:lr-tb;text-anchor:start;baseline-shift:baseline;opacity:1;color:#000000;fill:#d1947d;fill-opacity:1;stroke:none;stroke-width:2;marker:none;visibility:visible;display:inline;overflow:visible;enable-background:accumulate;font-family:Sans;-inkscape-font-specification:Sans" d="M 31.90625 21.96875 A 1.0001 1.0001 0 0 0 31.25 22.3125 L 7.25 49.3125 A 1.0001 1.0001 0 0 0 7.25 50.65625 L 31.25 77.65625 A 1.0069173 1.0069173 0 1 0 32.75 76.3125 L 10.21875 51 L 92 51 C 92.528313 51.01 93 50.5284 93 50 C 93 49.4716 92.528313 48.9925 92 49 L 10.21875 49 L 32.75 23.65625 A 1.0001 1.0001 0 0 0 31.90625 21.96875 z " transform="translate(0,952.36218)"/></g></svg>