<?xml version="1.0" encoding="UTF-8"?><svg id="Layer_1" xmlns="http://www.w3.org/2000/svg" viewBox="0 0 32.53 32.52"><defs><style>.cls-1{fill:#d1957c;stroke-width:0px;}</style></defs><g id="B0ZTeM.tif"><path class="cls-1" d="M31.98,6.43C30.6,2.7,27.91.58,23.95.07c-.1-.01-.2-.04-.31-.07h-14.83c-.79.18-1.61.29-2.38.54C2.71,1.79.09,5.29.05,9.22c-.06,4.69-.07,9.38,0,14.07.07,4.79,3.84,8.73,8.63,9.16.29.03.58.05.87.05,4.48,0,8.96.06,13.44-.01,4.05-.06,6.99-2,8.7-5.67.41-.87.52-1.87.77-2.81.03-.12.05-.25.07-.38v-14.75c-.18-.82-.26-1.67-.55-2.45ZM16.24,24.37c-4.5-.03-8.1-3.67-8.08-8.15.02-4.49,3.67-8.11,8.15-8.08,4.5.03,8.1,3.66,8.08,8.15-.02,4.49-3.67,8.11-8.15,8.08ZM25.73,8.14c-.73,0-1.33-.61-1.34-1.34-.01-.74.6-1.36,1.35-1.37.75,0,1.36.61,1.36,1.35,0,.75-.62,1.36-1.36,1.35Z"/><path class="cls-1" d="M21.68,16.25c0,3-2.4,5.42-5.41,5.42s-5.39-2.39-5.4-5.38c-.01-3.01,2.38-5.43,5.39-5.43,3.01,0,5.42,2.39,5.42,5.4Z"/></g></svg>