<?xml version="1.0" encoding="UTF-8"?>
<svg id="Layer_1" xmlns="http://www.w3.org/2000/svg" viewBox="-15 -5 68.04 40.33">
  <defs>
    <style>
      .cls-2 {fill: #66806b; stroke-width: 0px;}
    </style>
  </defs>
  <rect x="-15" y="-5" width="68.04" height="40.33" fill="#fff"/>
  <path class="cls-2" d="M9.72,12.07c-.15,4.68,5.73,4.53,5.73,10.56,0,4.22-3.47,7.69-7.69,7.69-3.47,0-6.49-2.26-7.39-5.58C-1.9,16.6,6.85,5.58,12.59,1.06c.6-.45,1.51-1.06,2.26-1.06.45,0,.9.15,1.21.75,1.06,1.96-.15,2.26-1.51,3.32-3.47,2.72-4.83,5.58-4.83,8ZM31.3,12.07c-.15,4.68,5.73,4.53,5.73,10.56,0,4.22-3.47,7.69-7.69,7.69-3.47,0-6.49-2.26-7.39-5.58-2.26-8.15,6.49-19.16,12.22-23.69.6-.45,1.51-1.06,2.26-1.06.45,0,.9.15,1.21.75,1.06,1.96-.15,2.26-1.51,3.32-3.47,2.72-4.83,5.58-4.83,8Z"/>
</svg>