<?xml version="1.0" encoding="UTF-8"?>
<svg id="Layer_1" data-name="Layer 1" xmlns="http://www.w3.org/2000/svg" version="1.1" viewBox="0 0 2000 1079.8">
  <defs>
    <style>
      .cls-1 {
        fill: #724027;
        stroke-width: 0px;
      }
    </style>
  </defs>
  <path class="cls-1" d="M267.9,669.5l4.4.4c4.6.4,14.2,1.2,24.2,4.6,12,4.1,20.6,10.7,25.6,19.5,3.8,6.8,5.6,29.9,4.8,61.9,0,.7,0,1.1,0,1.3,0,37-6,59.6-19.3,73.2-12.3,12.6-31.8,18.5-64.9,19.6-2.8,0-5.6,0-8.6,0-58,0-106.4-26.6-140-76.9-15.9-23.8-28.1-52.4-36.4-84.9-8.2-32.3-12.4-67.9-12.4-105.6s4.4-60,13.1-86.4c8.3-25.3,20.3-47.6,35.7-66.4,30.5-37.1,72.5-57.6,118.3-57.6s69.2,8.4,92.7,25c26.2,18.6,43.6,48,51.6,87.5l.6,3.2h10.7c0,0-4.9-102.7-4.9-102.7h0c0,0-1.3-1.2-1.3-1.2,0,0-3.3-2.8-8-6.3-12.8-9.3-31.2-17-53.1-22.4-20.1-4.9-42.6-7.6-63.3-7.6-30.4,0-60.3,6.2-88.9,18.5-28.3,12.2-53.8,29.7-75.8,52.1C25.8,466,0,531.5,0,602.8s4.3,63.9,12.9,93.9c9.2,32.4,23,61.2,40.9,85.6,19.7,26.9,44,48,72.2,62.5,31,16,66.7,24.2,106.1,24.2h.3s0,.3,0,.3l4.8-.3c23.6-.2,47.1-3.8,69.7-10.6,31.2-6.1,59.3-12.8,60.5-13.1l3.1-.7v-3.2c-.1,0-.3-5.1-.4-15.6v-106c.9-31.1,7.6-38.9,13.3-42.3,7.2-4.3,15.4-7,23.7-7.7l3.6-.3v-11.6h-142.8v11.6Z"/>
  <path class="cls-1" d="M796,730.9l-11.2-19.8,3.9,22.4c0,.3,5.4,32.7-8.8,58.8-7.6,14.1-18.8,24.2-33.3,30.2-12.8,5.3-28.6,7.6-46.8,6.6-59.2-3.1-112.8-44.1-131.1-58.2h8.8c38.7-.1,77.2-10.1,111.1-28.7,33-17.9,60.8-44.2,80.3-76.2,19.7-32.4,29.9-69.5,29.5-107.5.4-36-8.4-66.3-29.5-101-19.5-32.2-47.2-58.7-80.3-76.6-33.9-18.7-72.4-28.6-111.1-28.8l-144.4.2h-.2v11.5l3.5.4c8.5.9,16.5,3.5,23.9,7.7h.2c7.2,3.8,13.2,9.4,17.4,16.3,1.5,2.9,4.9,15.3,4.9,67.1v308c0,51.8-3.4,64.2-4.9,67.1-4.1,7-10.1,12.6-17.4,16.2h-.2c-7.4,4.3-15.4,7-23.9,7.8l-3.5.4v11.5h93v-95.6h16.1c22.5,23.8,72.2,69,94.2,84.4,16.7,11.8,39.5,27.9,75.3,27.9s17.1-.9,26-2.7c18.7-3.8,36.5-14.8,49-30.2,15.7-19.5,22.8-45.6,20.4-75.5-2.3-28.6-10.5-43.4-10.9-44ZM580.2,753.4h0c-.6,0-1.3,0-1.9,0h-52.4v-382.1h55.2c.6,0,1.2,0,1.8,0,33.4,0,60.5,7.7,85,24.1,26.8,17.8,48.5,42.5,62.8,71.5,16.4,32.8,22.9,59.2,22.6,90.9.3,32.2-6.9,64.6-20.8,93.8l-1.9,3.8c-14.2,28.9-35.9,53.7-62.8,71.5-26.1,17.3-56.4,26.5-87.7,26.5Z"/>
  <path class="cls-1" d="M922.3,847.3c-9.7-3.8-14.8-7.2-15.7-15.3-.4-3.7.9-13.3,6-29.1l11.4-32.3h240.5l17.7,49.1c2.1,6.5,1.4,9.7.4,12-2.8,6.3-8.6,10.5-17,15.1h0c-7.4,4.3-15.4,6.9-23.9,7.8l-3.5.4v11.5h142.8v-11.5l-3.5-.4c-8.5-.9-16.5-3.5-23.9-7.7h0c-7.5-4.1-21.1-23.6-24.8-32.6-30.6-74.6-165.5-448-171.2-463.9l-.9-2.6h-9.6l-.5,3.3c-1.9,12.5-7.5,24-17.7,36.2l-1.4,1.7,6.4,17.8-135.5,385.4c-9.4,23.4-14.3,32.1-18.1,37.9-4.7,6.9-11,12.7-18.4,16.6h-.1c-7.4,4.3-15.4,6.9-23.9,7.8l-3.5.4v11.5h117.1v-11.6l-3.6-.3c-7.3-.6-15.4-3.6-25.1-7.4ZM930.6,751.7l112.2-319,114.8,319h-227Z"/>
  <path class="cls-1" d="M1626,730.1c-10.5,41-27.7,71.9-51,92-21.3,18.4-47.7,27.7-78.5,27.7-58,0-106.4-26.6-140-76.9-15.9-23.8-28.1-52.4-36.4-84.9-8.2-32.3-12.4-67.9-12.4-105.6s4.4-60,13.1-86.4c8.3-25.3,20.3-47.6,35.7-66.4,30.5-37.1,72.5-57.6,118.3-57.6s69.2,8.4,92.7,25c26.2,18.6,43.6,48,51.5,87.5l.6,3.2h10.7c0,0-4.8-102.7-4.8-102.7h0c0,0-1.3-1.2-1.3-1.2,0,0-3.3-2.8-8-6.3-12.8-9.3-31.2-17.1-53.1-22.4-20.1-4.9-42.6-7.6-63.3-7.6-30.4,0-60.3,6.2-88.9,18.5-28.3,12.2-53.8,29.7-75.8,52.1-46.8,47.7-72.6,113.2-72.6,184.5s4.3,63.9,12.9,93.9c9.2,32.4,23,61.2,40.9,85.6,19.7,26.9,44,48,72.2,62.5,31,16,66.7,24.2,106.1,24.2.9,0,1.8,0,2.8,0,41.9,0,83.5-10.7,120.2-30.9h0c3.2-2,6.4-4.1,9.4-6.4l1.4-1.1,8.9-103.2v-.2s-10.7,0-10.7,0l-.8,2.9Z"/>
  <path class="cls-1" d="M1989,741.2l-.5,3.3c-4.8,31.9-13.6,57-26.2,74.7-13.5,19-31.1,28.6-52.2,28.6h-85.6c-38.3,0-47.9-10.2-51.6-27.8-1.9-18.7-2.8-37.7-2.4-56.5v-242h45.9c43.8,0,53,4.3,54.8,5.6,5.3,4.3,9.8,11.4,13.6,21.3,3.7,9.5,5.9,19.4,6.6,29.5l.2,3.7h11v-139.6h-11l-.2,3.7c-.7,10.1-2.9,20-6.6,29.5-3.7,9.8-8.3,17-13.5,21.2-1.8,1.3-11.1,5.6-54.8,5.6h-45.9v-130.9s112.6,0,112.6,0c20.9,0,36.6,9.3,48.1,28.4,10.1,16.8,17,41.3,21.1,74.8l.4,3.5h10.8v-125.4h-285.9v11.5l3.5.4c8.5.9,16.5,3.5,23.9,7.7h.2c7.2,3.8,13.2,9.4,17.4,16.3,1.5,2.9,4.9,15.3,4.9,67.1v308c0,51.8-3.4,64.2-4.9,67.1-4.1,7-10.1,12.6-17.4,16.2h-.2c-7.4,4.4-15.4,7-23.9,7.8l-3.5.4v11.5h312.8l9.8-125.2v-.2s-11,0-11,0Z"/>
  <path class="cls-1" d="M257.9,229.1c32.7,0,54.1-28.2,60.1-54.5v-.2c.2-.6.4-1.2,0-1.8-.4-.6-.9-.7-1.4-.8-.1,0-.3,0-.5-.1h-.2c-.2-.1-.6-.3-1.1-.3h0c-.4-.2-.9-.3-1.5,0-.6.3-.7.9-.8,1.1,0,0,0,.2-.1.5-3.3,12.2-9.2,22.4-16.9,29.4-8.4,7.6-18.9,11.5-31.2,11.5s-33.2-4.7-44.3-45.8l-.6-3.1c-.2-1-.4-2-.7-3-.2-.9-.5-1.8-.6-2.7-.8-5.4-1.4-10.8-1.8-16.1,33.8-.3,68.2-.3,101.4-.3h1.5l-.2-1.5c-2.4-16.4-9.8-32.8-20.3-45.1-11.6-13.6-26.1-21.1-40.8-21.1-34.7,0-63,34.6-63,77.1s28.2,76.8,63,76.8ZM223.2,102.5c6-13.3,14.9-20,26.5-20s22.7,10.2,28.9,18.7c7.1,9.9,12.9,23.2,15.7,35.8l-78.1.3c.2-12.5,2.8-25.5,7.1-34.9Z"/>
  <path class="cls-1" d="M312.6,81.9c3.5,0,9.7,3.3,15.8,8.5,7.3,6.7,8.8,10.4,11.6,18,7,19.5,14,39,20.8,57.8,6.8,18.9,13.8,38.5,20.7,57.6l.3.9h6.5l.4-.7c20.1-41.5,39.9-83.7,59.1-124.4,11.1-17.1,34.3-17.6,36.9-17.6s2-.9,2-2v-.6c0-1-.9-2-2-2h-52.5c-1,0-2,.9-2,2v.6c0,1,.9,2,2,2,4.8,0,8.4,1.5,10.2,4.3,1.8,2.7,2,6.8.5,10.5l-47.7,100.6-32.2-89.8c-2.8-7.9-3.6-11.2-1.3-17.6,1.8-4.9,5.3-7.9,9.1-7.9s1.2-.4,1.5-.9.1-1-.1-1.5v-1.5h-1c-.3-.2-.6-.3-1-.3h-58.2c-1.1,0-1.6.6-1.6,1.6v.3l.3.7c.1,1,.8,1.6,1.9,1.6Z"/>
  <path class="cls-1" d="M539.6,229.1c32.7,0,54.1-28.2,60.1-54.5v-.2c.2-.6.4-1.2,0-1.8-.4-.6-.9-.7-1.4-.8-.1,0-.3,0-.5-.1h-.2c-.2-.1-.6-.3-1.1-.3h0c-.4-.2-.9-.3-1.5,0-.6.3-.7.9-.8,1.2,0,0,0,.2-.1.5-3.3,12.2-9.2,22.4-16.9,29.4-8.4,7.6-18.9,11.5-31.2,11.5s-33.2-4.7-44.3-45.8l-.6-3.1c-.2-1-.4-2-.7-2.9-.2-.9-.5-1.8-.6-2.7-.8-5.4-1.4-10.8-1.8-16.1,33.8-.3,68.2-.3,101.4-.3h1.5l-.2-1.5c-2.4-16.4-9.8-32.8-20.3-45.1-11.6-13.6-26.1-21.1-40.8-21.1-34.7,0-63,34.6-63,77.1s28.2,76.8,63,76.8ZM497.9,137.4c.2-12.5,2.8-25.5,7.1-34.9,6-13.3,14.9-20,26.5-20s22.7,10.2,28.9,18.7c7.1,9.9,12.9,23.2,15.7,35.8l-78.1.3Z"/>
  <path class="cls-1" d="M605.1,101.6c0,0,0,.1,0,.2.1.5.4.8.8,1,.6.3,1.1,0,1.3-.1,0,0,.1,0,.2-.1,3.9-2.2,7.1-3.3,10-3.3s8.4,2.1,8.4,18.5v77c0,7.7,0,11.2-5.1,17.5-3.4,4.9-8.4,8.2-12.1,8.2s-2,.9-2,2v.6c0,1,.9,2,2,2h58.7l.4-.4c.2-.2.7-.8.7-1.6v-1.2c-.8-1.3-1.7-1.4-2-1.4-3.7,0-8-2.8-12.1-7.9-4.9-6.7-5.1-10.3-5.1-17.8v-84.3c2-4.7,6.5-13.6,14.8-20.2.5-.3,1.2-.7,1.9-1.1,3.3-2.1,8.2-5.2,13.8-5.2s3.9.3,5.7,1.1c5.8,2.6,8.3,8,10.5,12.8,2.4,5.1,4.6,10,10.5,10s8.1-1.1,10.6-3.3c2.3-2,3.5-4.8,3.5-8.1,0-5-2.8-10.5-7.6-14.7-5.3-4.7-12.5-7.3-20.1-7.3-17.4,0-33.7,8.9-43.6,23.9v-28.2c0-.4,0-1-.6-1.4-.4-.3-.8-.4-1.3-.2,0,0,0,0-.1,0h-2.6l-.4.3c-5,3.7-32.1,24.5-39.3,30.2h-.1c-.2.3-.6.7-.6,1.4s.2.9.5,1.1l.2.4Z"/>
  <path class="cls-1" d="M750,262.6h0c-2.5-2.5-5.9-3.9-9.7-3.9-6.1,0-12.7,4.4-12.7,12.7s4.4,14.3,12.8,18.6c6.5,3.4,15.4,5.4,23.8,5.4h0c31.3-1,40-24.2,72.4-110.6l1.4-3.8c5.5-14.7,11.8-31,19-49.8l.3-.9c3.7-9.7,7.7-19.9,11.8-30.8,4.6-11.7,12.7-17.7,24.2-17.7h.2c.8-.3,1.4-1.1,1.4-2v-.6c0-1-.9-2-2-2h-52.5c-1,0-2,.9-2,2v1.2l.4.4s0,0,0,.1c.1.2.6.9,1.5.9,12.1,0,20.1,5.2,22.3,8.4,1.6,2.3,1.8,5,.6,8-12.3,31.4-22.3,58.2-30.8,80.8-4.9,12.8-9.5,24.6-13.2,34.1l-.6,1.6-38.1-107.3c-2.8-7.9-3.6-11.2-.9-17.6,1.1-3,3.8-7.9,9.1-7.9h1.3v-2.2l-.5-1.1-.2-.2c-.2-.2-.8-.7-1.6-.7h-57.9c-1.4,0-2,.8-2,1.6v.3l.5,1c.5,1,.9,1.4,2.1,1.4,3.4,0,10,3.6,15.5,8.5,7.3,6.7,8.8,10.4,11.6,18,14.2,40.2,27.4,77.4,40.6,113.8l.3.9h16.9c-21.2,54.1-31.3,66.5-53.7,66.5s-8.7-1.7-10.7-4.8c-1.5-2.3-1.7-5-.6-7.5,2.7-6.4,2.5-11.3-.6-14.7Z"/>
  <path class="cls-1" d="M899.8,66.2l.2.2c.8.8,1.6.8,2.3.2,3.8-2.2,7.1-3.2,9.9-3.2s7.7,1.5,8.4,14h-12.2v5.8h12.6v104.9c0,8,0,17.1,3,24.5,3.6,8.8,10.7,13.1,21.6,13.1,29.2,0,41-21,41.1-21.2.2-.4.3-.6.4-.6h.1c0-.1.1-.3.1-.3.6-1.1.2-2.7-.9-3.7h-.1c0-.1-.2-.3-.2-.3-1.1-.6-2.7-.2-3.7.9h-.1c0,.1-.1.3-.1.3,0,.1-6.7,11.6-20.5,11.6s-8.2-1.3-10.9-4.1c-6.8-6.8-6.7-20.9-6.6-31.2,0-.8,0-1.6,0-2.4v-91.4h12.9v-5.8h-12.9v-43.3c0-.4,0-1.1-.7-1.5-.2-.1-.6-.3-1.2-.1h-2.8l-.4.3c-4.8,3.9-32,24.7-39.3,30.2h-.1c-.9,1-.7,1.8-.2,2.6l.4.8Z"/>
  <path class="cls-1" d="M992.2,33.8l.2.2c.8.8,1.6.8,2.3.2,3.8-2.2,7.1-3.2,9.9-3.2s8.4,1.9,8.4,18.5v145.3c0,7.7,0,11.2-4.8,17.4-3.8,5-8.8,8.3-12.5,8.3s-2,.9-2,2v.6c0,1,.9,2,2,2h58.2c.8,0,1.6-.5,1.6-2v-1.2c-.8-1.3-1.7-1.4-2-1.4-3.7,0-8-2.8-12.1-7.9-4.9-6.7-5.1-10.3-5.1-17.8v-87.2c15.8-17,32.1-25.6,48.4-25.6s32.6,17.4,32.6,43.3v69.5c0,7.7,0,11.2-5.1,17.5-3.4,4.9-8.4,8.2-12.1,8.2s-2,.9-2,2v.6c0,1,.9,2,2,2h58.7l.4-.4c.2-.2.7-.8.7-1.6v-1.2c-.8-1.3-1.7-1.4-2-1.4-3.7,0-8-2.8-12.1-7.9-4.9-6.7-5.1-10.3-5.1-17.8v-68.9c0-32.6-19.3-49.8-55.7-49.8s-37.8,12.4-48.7,23V1.6c0-1.6-1.5-1.6-2-1.6h-1.6c-.7,0-1.1.2-1.5.6-5.1,3.8-32.2,24.6-39.3,30.2h-.1c-.2.3-.6.7-.6,1.4s.2.9.5,1.1l.3.6Z"/>
  <path class="cls-1" d="M1203.1,46.7c7.8,0,14.2-6.2,14.2-13.9s-6.2-14.2-14.2-14.2-13.9,6.4-13.9,14.2,6.2,13.9,13.9,13.9Z"/>
  <path class="cls-1" d="M1170.8,101.6c.3.5.6,1.1,1.3,1.2.7.1,1.2-.3,1.3-.4,3.8-2.2,7.1-3.2,9.9-3.2s8.4,2.1,8.4,18.5v77c0,7.7,0,11.2-5.1,17.5-3.4,4.9-8.4,8.2-12.1,8.2s-2,.9-2,2v.6c0,1,.9,2,2,2h58.7l.4-.4c.2-.2.7-.8.7-1.6v-1.2c-.8-1.3-1.7-1.4-2-1.4-3.7,0-8-2.8-12.1-7.9-4.9-6.7-5.1-10.3-5.1-17.8v-124.8c0-.4,0-1-.6-1.4-.4-.3-.8-.4-1.3-.2,0,0,0,0-.1,0h-2.6l-.4.3c-5,3.7-32.1,24.5-39.3,30.2h-.1c-.8.9-.8,1.7-.2,2.4l.2.5Z"/>
  <path class="cls-1" d="M1245.1,100.8l.2.2c.8.8,1.6.8,2.3.1,3.8-2.2,7.1-3.2,9.9-3.2s8.4,1.9,8.4,18.5v78.3c0,7.7,0,11.2-4.8,17.4-3.8,5-8.8,8.3-12.5,8.3s-2,.9-2,2v.6c0,1,.9,2,2,2h58.2c.3,0,1.6,0,1.6-2v-1.2c-.8-1.3-1.7-1.4-2-1.4-3.7,0-8-2.8-12.1-7.9-4.9-6.7-5.1-10.3-5.1-17.8v-85.9c18.4-17.9,34.8-26.9,48.7-26.9s32.3,17.4,32.3,43.3v69.5c0,7.7,0,11.2-4.8,17.4-3.8,5-8.8,8.3-12.5,8.3s-2,.9-2,2v.6c0,1,.9,2,2,2h58.7l.4-.4c.2-.2.7-.8.7-1.6v-1.2c-.8-1.3-1.7-1.4-2-1.4-3.7,0-8-2.8-12.1-7.9-4.9-6.7-5.1-10.3-5.1-17.8v-68.9c0-32.6-19.3-49.8-55.7-49.8s-25.8,3.2-48.7,24.6v-32.1c0-1.6-1.5-1.6-2-1.6h-1.6c-.7,0-1.1.2-1.5.6-5.1,3.8-32.2,24.6-39.3,30.2h-.1c-.8.9-.8,1.7-.2,2.4l.3.6Z"/>
  <path class="cls-1" d="M1439.7,257.8c10.2,8.7,23.8,13.8,37.3,13.8s21-3.8,28.6-10.7c6.2-5.6,10.2-12.8,10.2-18.3s-.5-3.6-1.5-4.7c-1.1-1.3-2.7-1.9-4.7-1.9-5.4,0-8.8,3.4-10.1,4.8-3,3.1-4.3,7.2-5.6,11.1-2.4,7.5-4.5,13.9-17,13.9-18.1,0-29.3-7.5-35.4-13.9-7.4-7.5-11.8-17.7-11.8-27.2s1.6-10.7,4.6-14.3c3.2-3.8,7.9-5.8,13.7-5.8,13.7,0,23.7,7.8,33.4,15.3,9.2,7.2,17.9,13.9,29.2,13.9s29.6-8.3,37.3-20.8c6.1-9.8,6.8-20.6,1.9-30.2-2.6-5.4-7.5-11.6-22.9-12.3,13.5-10.3,21.2-25.7,21.2-42.5s-4.6-24.9-13.2-35.1c0-3.5.7-6.9,1.2-9.8,2.9-7.6,9.1-12,18.3-12.9h2.8c3.1,0,6.1.4,9.1.8,2.7.4,5.2.7,7.5.7s4.9-.2,7.3-1.8c3.7-2.2,5.6-5.6,5.1-9.4-.6-4.4-4.2-8.3-9-9.7-2.6-.7-5.3-1-7.9-1-9.5,0-19.2,4.1-26.6,11.3-7.2,7-11.7,16.4-12.9,26.6-10.5-9-23.7-14-37.3-14s-28.9,5.6-39.4,15.8c-10.5,10.2-16.3,23.8-16.3,38.3s5.8,28.1,16.3,38.3c10.5,10.2,24.5,15.8,39.4,15.8s14.9-1.5,22.1-4.5c3.9-1,8.1-1.5,11.9-1.5,8.7,0,15.1,3.2,18,9.1,1.2,2.1,1.7,4.3,1.4,6.4v.2c0,2.6-.6,4.9-1.7,7.2-3.6,6.2-13.9,12.5-26.8,12.5s-18.2-5.8-25.8-12c-8.3-6.8-16.8-13.7-30.9-13.7s-.3,0-.5,0c-9.1,0-18.4,3.9-25.7,10.7-7.5,7-11.8,16.3-11.8,25.5,0,13.7,6,26.3,16.9,35.7ZM1465.2,87.6c3.7-2.6,8.1-3.9,13.4-3.9,13.8,0,29.8,10.1,40.7,25.8,9.3,13.5,13.3,29.1,10.9,41.8-1.4,7.4-5,13.2-10.3,16.8h0c-3.9,2.7-8.6,4.2-13.4,4.2-13.9,0-29.9-10.3-40.7-26.2-7.4-10.7-11.6-22.8-11.6-33.9,0-10.9,3.8-19.7,10.9-24.6Z"/>
  <path class="cls-1" d="M1664.1,46.7c7.8,0,14.2-6.2,14.2-13.9s-6.2-14.2-14.2-14.2-13.9,6.4-13.9,14.2,6.2,13.9,13.9,13.9Z"/>
  <path class="cls-1" d="M1631.8,101.6h0c.3.5.6,1.1,1.3,1.2.7.1,1.2-.3,1.3-.4,3.8-2.2,7.1-3.2,9.9-3.2s8.4,2.1,8.4,18.5v77c0,7.7,0,11.2-5.1,17.5-3.4,4.9-8.4,8.2-12.1,8.2s-2,.9-2,2v.6c0,1,.9,2,2,2h58.7l.4-.4c.2-.2.7-.8.7-1.6v-1.2c-.8-1.3-1.7-1.4-2-1.4-3.7,0-8-2.8-12.1-7.9-4.9-6.7-5.1-10.3-5.1-17.8v-124.8c0-.4,0-1-.6-1.4-.5-.4-1.1-.3-1.3-.2,0,0,0,0-.1,0h-2.6l-.4.3c-5,3.7-32.1,24.5-39.3,30.2h-.1c-.8.9-.8,1.7-.2,2.4l.2.5Z"/>
  <path class="cls-1" d="M1706.8,225.3h.6c.4,0,.7-.1,1-.3h.5l.4-.8c.2-.4.3-.8.5-1.2h0c1.4-3.4,2.8-6.8,8.6-6.8s8.9,1.6,13.7,3.4c6.5,2.4,14.6,5.5,26.9,5.5,22.1,0,38.8-17.5,38.8-40.6s-3.9-19.3-12.4-27.4c-8.4-7.3-18.4-12.5-28-17.5-3.8-2-7.7-4-11.5-6.2-19.7-11.2-29.1-23.2-28.6-36.5.9-11.8,16.3-18.3,26.7-18.3,22.9,0,39.7,14.1,49.7,41.9h0c.3.8.7,1.5,1.8,1.5h.3c1.9,0,2-1.4,2-1.6v-45.6c0-2.1-1.2-2.3-1.6-2.3h-.6c-.4,0-.7.1-1,.3h-.5l-.4.8c-.2.4-.4.8-.6,1.3-1.4,3.3-2.8,6.7-8.6,6.7-4.6-.1-8.7-1.6-13.4-3.4-6.9-2.5-14.7-5.4-27.2-5.4-22.1,0-38.8,17.3-38.8,40.3s4.1,19.7,12.4,27.7c8.4,7.3,18.4,12.5,28,17.5,3.8,2,7.7,4,11.5,6.2,19.8,11.2,29,23.1,28.3,36.3,0,6.7-4.9,11.1-9.1,13.6-5,3-11.6,4.9-17.3,4.9-22.9,0-39.7-14.1-49.7-41.9h0c-.3-.8-.7-1.5-1.8-1.5h-.3c-1.4,0-2,.8-2,1.6v45.6c0,2.1,1.1,2.3,1.6,2.3Z"/>
  <path class="cls-1" d="M563.1,995.2h-1.4c-1,0-2,0-3.1,0-1.1,0-2.2,0-3.3,0h-11.1c-2.6,0-5.3.1-8,.2h-.8v.5c0,.2,0,.5.6.5,4.5,0,8.1,4.1,8.1,7.5v66.5c0,3.4-3.6,7.5-8.1,7.5s-.6.3-.6.5v.2c0,.3.1.5.3.5h25.9c.2,0,.3-.2.3-.5v-.2c0-.1,0-.3,0-.3-.1-.2-.4-.2-.6-.2-3.6,0-8-3.4-8-7.5v-29.8c-.1,0,4.7,0,4.7,0,8,0,14.6-.8,21.1-4.6,6.8-4,11.2-11.7,10.9-19.1-.5-13.7-10.4-21.6-27.2-21.6ZM558.3,1038.9h-4.9v-15c.1,0,.1-20,.1-20,0-3.4,2.8-6,5.5-7h2.5c10.7,0,19.7,9.2,19.7,20.1,0,19.2-14.3,22-22.9,22Z"/>
  <path class="cls-1" d="M708.8,994.7c-23.1,0-41.9,19.1-41.9,42.5s18.8,42.5,41.9,42.5,41.9-19.1,41.9-42.5-18.8-42.5-41.9-42.5ZM743.1,1050.8c-1.5,9.7-6.4,17.5-13.9,21.8-4.3,2.4-8.9,3.7-13.7,3.7-13.3,0-27-8.9-35-22.6-5.4-9.5-7.6-20.1-6.1-29.8,1.5-9.7,6.4-17.5,13.9-21.8,4.3-2.4,8.8-3.7,13.7-3.7,13.3,0,27,8.9,35,22.6,5.4,9.5,7.6,20.1,6.1,29.8Z"/>
  <path class="cls-1" d="M884.2,1004.1c-5.8-6-13.8-9-23.7-9h-6c-8.8,0-17.3.1-26.3.2h-1.6v.5c0,.2,0,.5.6.5,3.6,0,8,3.4,8,7.5v33.2c.1,0,0,13.3,0,13.3v20c0,4.2-4.4,7.5-8,7.5s-.6.3-.6.5v.2c0,.3.1.5.3.5h33.6c9.9,0,17.8-3,23.7-9,11-11.2,11.1-29.5,11-33,0-3.5,0-21.7-11-32.9ZM844.7,1069.5v-32.5c-.1,0,0-32.3,0-32.3.7-6,2.9-7.9,9.2-7.9,18.7,0,31.2,6.8,31.7,40.2-.5,33.5-13.1,40.4-31.7,40.4h-1c-5.4,0-7.6-2.1-8.3-7.9Z"/>
  <path class="cls-1" d="M1040.7,997.1h-.2c-.2,0-.4.2-.5.4-1.1,2.9-5.6,3.1-6.9,3.1s-3.4-.9-5.8-1.9c-3.8-1.7-8.6-3.7-14-3.7-11.9,0-22,4.5-29.2,13.1-6.4,7.7-9.9,17.9-10,28.9,0,12.3,4.4,23.8,12.2,31.7,7,7,16.3,10.7,27,10.7s10.2-2.1,14-3.7c2.3-1,4.4-1.9,5.8-1.9,3.5,0,6.2,1.3,6.9,3.1,0,.2.2.4.5.4h.2c.2,0,.5-.2.5-.5v-22.9c0-.2-.2-.5-.5-.5h-.2c-.2,0-.5.2-.5.5,0,1.7-1.5,4.8-4,8.4-7.2,10.4-14.6,15.4-22.7,15.4s-13.8-5-17.8-9.2c-7.8-8.3-12.2-19.7-12.2-31.3s4.5-23.1,12.2-31.4c4-4.2,10.3-9.2,17.8-9.2s15.5,5,22.7,15.4c2.5,3.7,4,6.8,4,8.4s.2.5.5.5h.2c.2,0,.5-.2.5-.5v-22.9c0-.3-.2-.5-.5-.5Z"/>
  <path class="cls-1" d="M1192.1,1078.2c-4.9-1.7-7.5-6.5-8.7-10.2l-25.1-72.8h0c0-.1-1.4-.1-1.4-.1l-24.3,71.2c-2.1,6-9.5,10.7-13.1,11.9-.2,0-.4.2-.4.5v.2c0,.2.2.5.5.5h22.9c.2,0,.5-.2.5-.5v-.2c0-.2-.2-.5-.5-.5-2.8,0-5.4-1.4-7.1-3.7-1.7-2.3-2.1-5.2-1.2-7.8l5-14.6h29.1l6.3,18.7c.6,1.8.5,3.6-.5,5-1.1,1.5-2.9,2.5-4.8,2.5s-.5.2-.5.5v.2c0,.2.2.5.5.5h22.9c.2,0,.3-.2.3-.5v-.2c0-.3-.1-.4-.3-.5ZM1167.5,1050.4h-27.8l13.8-40.5,14,40.5Z"/>
  <path class="cls-1" d="M1296,1033.1c-2.5-1-5.1-2-7.5-3.1-7.8-3.5-15-8.2-15-18.2s8.4-15.9,17.4-15.9,15.4,5,22.6,15.3c2.6,3.6,4.1,6.8,4.1,8.5s.2.3.5.3h.2c.3,0,.5-.1.5-.3v-24.8c0-.2-.2-.5-.5-.5h-.2c-.2,0-.3.1-.3.2,0,0,0,0,0,0h0c-.7,2.2-3.7,5.2-6.9,5.2s-3.5-.9-5.9-2c-3.8-1.7-8.5-3.8-13.9-3.8-14.4,0-22,10.8-22,21.5.1,15.4,11.8,21.2,22.8,25.4,1,.4,2,.8,3.1,1.2,10.8,4.2,21,8.1,21,19.9-.1,8.5-7.7,15.9-16.3,15.9s-15.5-5-22.7-15.4c-2.6-3.9-4-6.8-4-8.4s-.2-.5-.5-.5h-.2c-.2,0-.5.2-.5.5v24.7c0,.2.2.5.5.5h.2c.2,0,.3-.1.3-.2,0,0,0,0,0,0h0c.7-2.1,3.6-5.1,6.9-5.1s3.4.9,5.8,1.9c3.8,1.7,8.6,3.7,14,3.7s11.8-2.1,15.6-6c3.7-3.8,5.8-9.1,5.7-14.8-.1-16-12.7-21-24.9-25.8Z"/>
  <path class="cls-1" d="M1397.7,995.5c0,6.8,0,13.8.1,20.8v.2h.5c.3,0,.5-.1.5-.3,0-3.7,3.4-18.6,18.8-19.3,2.1,0,8.9.5,8.9,7v66.5c0,4.4-4.9,7.5-8.1,7.5s-.6.3-.6.5v.2c0,.3.1.5.3.5h26.1c.2,0,.3-.2.3-.5v-.2c0-.2,0-.5-.6-.5-3.3,0-8.1-3.2-8.1-7.5v-66.5c0-6.5,6.8-7,8.9-7,15.5.7,18.9,15.7,18.9,19.3s.2.3.5.3h.1c.2,0,.5,0,.5-.3v-21h-66.8v.3Z"/>
</svg>